<svg xmlns="http://www.w3.org/2000/svg" width="286" height="96" viewBox="0 0 286 96">
  <path fill="#fff" d="M74.1,0.185 C68.819,1.035 61.891,4.905 56.049,10.268 C54.252,11.918 54.332,11.922 52.233,10.077 C31.322,-8.299 16.803,-0.065 22.33,27.036 C22.96,30.124 23.082,29.896 20.3,30.807 C9.066,34.483 1.915,40.01 0.485,46.123 C-1.149,53.101 7.174,61.138 20.638,65.585 C22.927,66.341 22.858,66.191 22.276,69.1 C19.82,81.391 21.541,91.026 26.797,94.398 C32.555,98.093 43.119,94.552 52.861,85.66 C54.346,84.305 54.485,84.32 56.346,86.017 C67.491,96.177 78.812,98.769 83.797,92.3 C87.563,87.414 88.306,79.784 86.177,67.848 C85.853,66.032 85.838,66.048 88.6,65.091 C101.531,60.608 109.194,53.298 108.002,46.583 C106.914,40.452 98.966,34.249 87.653,30.701 C85.558,30.044 85.547,30.019 86.112,27.244 C89.64,9.911 84.575,-1.501 74.1,0.185 M78.551,5.251 C82.154,6.918 83.514,14.855 81.883,24.7 C81.189,28.887 81.182,28.895 78.545,28.362 C75.696,27.787 72.248,27.237 70,27 C66.555,26.636 66.777,26.77 64.452,23.649 C63.326,22.137 61.636,20 60.697,18.9 C57.236,14.847 57.267,15.338 60.3,12.719 C67.497,6.502 74.798,3.515 78.551,5.251 M36.427,5.597 C40.309,6.893 45.219,9.999 49.566,13.907 C50.948,15.15 50.927,15.231 48.446,18.158 C46.046,20.99 44.605,22.795 43.028,24.947 C41.805,26.615 41.714,26.655 38.3,27.007 C37.09,27.132 34.57,27.508 32.7,27.842 C27.871,28.706 27.575,28.7 27.252,27.727 C26.084,24.208 25.49,16.344 26.093,12.4 C27.149,5.492 30.167,3.505 36.427,5.597 M56.573,21.157 C59.852,25.023 60.468,25.993 59.65,26.005 C56.077,26.061 48.744,25.989 48.596,25.898 C48.225,25.668 48.807,24.859 52.153,20.95 C54.32,18.418 54.246,18.415 56.573,21.157 M125.05,25.228 C124.693,25.588 124.683,69.603 125.04,69.96 C125.332,70.252 129.549,70.289 130,70.004 C130.258,69.842 130.308,68.606 130.354,61.257 C130.402,53.531 130.44,52.676 130.742,52.45 C131.424,51.94 138.878,52.111 139.482,52.65 C139.76,52.897 141.848,56.025 144.123,59.6 C150.598,69.776 150.733,69.976 151.24,70.101 C152.351,70.377 156.893,70.113 156.958,69.769 C156.993,69.588 154.529,65.673 151.482,61.069 C144.778,50.942 145.165,51.937 147.698,51.315 C160.215,48.239 160.361,30.033 147.903,25.736 L146.1,25.114 L135.7,25.045 C127.533,24.991 125.246,25.031 125.05,25.228 M272.607,28.987 C272.486,29.214 272.399,30.932 272.397,33.137 C272.393,37.777 272.573,37.475 269.759,37.568 C266.973,37.66 266.999,37.64 267.003,39.674 C267.007,41.927 266.962,41.887 269.642,41.968 C270.884,42.006 272.013,42.129 272.15,42.243 C272.344,42.403 272.401,44.821 272.404,53.074 C272.409,66.142 272.509,66.991 274.275,68.946 C276.191,71.067 280.749,71.66 283.867,70.194 C285.771,69.3 285.904,68.838 284.898,66.639 C284.352,65.446 284.343,65.443 282.7,66.075 C280.73,66.832 278.951,66.298 278.117,64.7 C277.629,63.763 277.338,42.857 277.806,42.293 C277.964,42.103 278.831,42.011 280.92,41.965 C284.323,41.889 284.193,41.98 284.197,39.674 C284.201,37.526 284.236,37.549 280.927,37.522 C277.335,37.492 277.6,37.851 277.6,33.016 C277.6,30.221 277.53,29.01 277.36,28.84 C276.914,28.394 272.857,28.52 272.607,28.987 M144.651,30.296 C152.556,32.355 153.752,42.888 146.473,46.345 C144.445,47.308 131.885,47.938 130.65,47.138 C130.295,46.909 130.286,30.594 130.64,30.24 C131.022,29.858 143.157,29.906 144.651,30.296 M62.778,30.981 C64.24,31.155 64.052,30.968 66.315,34.495 C69.859,40.017 73.893,47.572 73.681,48.288 C73.271,49.668 67.177,60.414 65.045,63.515 C63.817,65.302 64.216,65.239 54,65.255 C43.798,65.27 44.681,65.483 42.788,62.555 C39.352,57.236 34.8,48.954 34.8,48.018 C34.8,46.651 43.374,31.803 44.517,31.191 C45.48,30.675 58.915,30.521 62.778,30.981 M37.8,32.22 C37.8,32.452 37.274,33.509 36.63,34.57 C35.7258765,36.0830149 34.8451054,37.6098625 33.988,39.15 C32.212,42.346 32.086,42.395 31.19,40.25 C30.361,38.265 29,34.228 29,33.755 C29,33.198 30.181,32.891 36,31.936 C37.345,31.716 37.8,31.787 37.8,32.22 M73.93,32.201 C77.464,32.8 79.154,33.204 79.409,33.511 C79.668,33.823 79.342,34.931 77.857,38.8 C76.402,42.588 76.377,42.599 74.962,40.026 C74.1128624,38.5164083 73.2458011,37.016969 72.361,35.528 C69.895,31.366 69.829,31.507 73.93,32.201 M24.157,34.85 C24.271,34.988 24.921,36.63 25.602,38.5 C26.284,40.37 27.42,43.27 28.127,44.945 L29.412,47.99 L27.984,51.425 C27.081617,53.617263 26.2293951,55.8298393 25.428,58.061 C24.062,61.936 24.186,61.835 21.75,61.047 C12.293,57.985 5,52.312 5,48.018 C5.001,43.639 11.531,38.597 21.5,35.279 C23.77,34.523 23.874,34.507 24.157,34.85 M87.431,35.514 C96.993,38.815 103.4,43.8 103.4,47.939 C103.4,52.272 96.05,57.846 86.06,61.088 C85.007,61.43 84.2,61.293 84.2,60.773 C84.2,60.344 81.554,53.517 80.394,50.954 C78.934,47.727 78.908,48.342 80.674,44.177 C81.485,42.265 82.569,39.49 83.083,38.01 C84.384,34.266 84.17,34.389 87.431,35.514 M175.839,36.803 C163.443,38.527 157.57,54.38 165.439,64.875 C170.668,71.85 182.383,73.066 189.85,67.409 C191.53,66.137 191.579,65.783 190.297,64.15 C189.22,62.778 189.189,62.774 187.795,63.823 C181.116,68.842 171.865,67.267 168.708,60.574 C167.605,58.236 167.124,56.002 167.65,55.662 C167.788,55.573 173.658,55.455 180.695,55.4 L193.49,55.3 L193.685,54.746 C193.932,54.044 193.572,50.715 193.01,48.5 C190.998,40.573 183.832,35.691 175.839,36.803 M212.9,36.823 C209.02,37.115 205.438,38.637 202.893,41.076 C201.826,42.098 201.826,42.081 202.962,43.85 C203.972,45.423 204.114,45.432 205.877,44.031 C210.027,40.733 215.757,40.134 219.596,42.597 C221.824,44.027 222.4,45.534 222.4,49.936 C222.4,53.514 222.437,53.471 220.536,52.124 C213.383,47.056 203.008,49.398 200.789,56.582 C197.285,67.928 210.707,75.602 220.797,68.021 C222.16,66.996 222.276,67.036 222.4,68.573 C222.464,69.371 222.607,69.883 222.8,70.004 C223.19,70.251 226.81,70.251 227.2,70.004 C227.7,69.688 227.637,46.214 227.131,44.412 C225.942,40.176 222.329,37.326 217.62,36.909 C215.212,36.695 214.714,36.686 212.9,36.823 M250.1,36.804 C237.395,38.164 231.414,54.435 239.667,65.185 C244.08,70.935 253.706,72.76 260.059,69.053 C261.748,68.067 263.8,66.087 263.8,65.443 C263.8,64.871 261.534,62.623 260.942,62.609 C260.745,62.604 260.25,62.955 259.842,63.389 C254.656,68.907 245.05,66.727 242.21,59.389 C237.373,46.89 250.115,35.514 259.545,43.914 C261.062,45.265 261.028,45.267 262.677,43.728 L264.04,42.457 L263.726,41.85 C262.529,39.536 258.269,37.253 254.328,36.813 C252.256,36.582 252.176,36.582 250.1,36.804 M52.6,38.417 C44.909,39.748 41.972,49.132 47.498,54.714 C53.463,60.737 63.795,56.417 63.795,47.9 C63.795,41.99 58.394,37.415 52.6,38.417 M181.456,41.401 C185.323,42.595 188.586,46.823 188.598,50.655 C188.601,51.799 188.579,51.802 178.537,51.782 C166.123,51.758 166.736,51.948 167.897,48.49 C169.912,42.488 175.506,39.563 181.456,41.401 M216.5,53.433 C218.071,53.764 220.335,54.936 221.417,55.979 L222.4,56.926 L222.4,63.419 L221.425,64.394 C215.75,70.069 205.5,67.369 205.5,60.2 C205.5,54.978 210.178,52.1 216.5,53.433 M76.885,54.57 C77.884,56.504 79.844,62.052 79.679,62.481 C79.487,62.982 72.894,64.298 71.256,64.162 C70.259,64.08 70.298,63.916 71.981,61.141 C72.9106789,59.592702 73.8141411,58.0288123 74.691,56.45 C76.107,53.884 76.4,53.633 76.885,54.57 M32.637,54.55 C32.802,54.743 33.319,55.62 33.786,56.5 C34.253,57.38 35.393,59.37 36.318,60.923 C38.573,64.707 38.63,64.548 35.178,64.097 C28.506,63.226 28.532,63.246 29.68,59.889 C31.525,54.492 31.943,53.737 32.637,54.55 M81.271,67.85 C83.238,71.015 83.157,83.501 81.141,87.787 C78.347,93.729 70.268,91.885 59.851,82.929 C57.899,81.25 57.735,80.88 58.53,79.938 L60.516,77.582 C61.295,76.657 62.982,74.493 64.264,72.772 C66.952,69.166 66.442,69.495 69.956,69.096 C72.821,68.771 79.6,67.666 79.769,67.498 C80.054,67.213 81.015,67.439 81.271,67.85 M32.2,68.287 C34.455,68.665 37.376,69.073 38.692,69.194 C41.997,69.497 41.801,69.399 43.425,71.569 C45.278,74.046 46.845,75.991 49.041,78.544 C51.065,80.895 51.09,80.991 49.95,82.056 C43.111,88.448 34.716,92.269 30.372,90.968 C26.181,89.712 24.622,81.028 26.718,70.609 C27.21,68.161 27.426,67.6 27.874,67.6 C27.999,67.6 29.945,67.91 32.2,68.287 M60,70.387 C60,71.129 55.004,77.2 54.394,77.2 C53.795,77.2 48.6,71.091 48.6,70.387 C48.6,70.013 48.799,70 54.3,70 C59.804,70 60,70.013 60,70.387"/>
</svg>
