<?xml version="1.0" encoding="utf-8"?>
<!-- Generator: Adobe Illustrator 26.3.1, SVG Export Plug-In . SVG Version: 6.00 Build 0)  -->
<svg version="1.1" id="Layer_1" xmlns="http://www.w3.org/2000/svg" xmlns:xlink="http://www.w3.org/1999/xlink" x="0px" y="0px"
	 viewBox="0 0 120 60" style="enable-background:new 0 0 120 60;" xml:space="preserve">
<style type="text/css">
	.st0{fill:#95BF47;}
	.st1{fill:#5E8E3E;}
	.st2{fill:#FFFFFF;}
</style>
<path class="st0" d="M37.1,19.2c0-0.2-0.2-0.3-0.3-0.3c-0.1,0-2.9-0.2-2.9-0.2l-2.1-2.1c-0.2-0.2-0.6-0.1-0.8-0.1
	c0,0-0.4,0.1-1.1,0.3c-0.6-1.8-1.8-3.5-3.7-3.5h-0.2c-0.6-0.7-1.3-1.1-1.8-1.1c-4.6,0-6.8,5.7-7.5,8.7l-3.2,1c-1,0.3-1,0.3-1.1,1.3
	L9.7,44L30,47.8l11-2.4C40.9,45.4,37.1,19.4,37.1,19.2L37.1,19.2z M28.8,17.2c-0.5,0.2-1.1,0.3-1.7,0.5v-0.4c0-0.9-0.1-1.9-0.4-2.8
	C27.7,14.7,28.4,15.8,28.8,17.2z M25.5,14.8c0.3,1,0.5,2,0.5,3.1V18l-3.5,1.1C23.1,16.5,24.4,15.3,25.5,14.8L25.5,14.8z M24.1,13.5
	c0.2,0,0.4,0.1,0.6,0.2c-1.5,0.7-3,2.4-3.7,5.9l-2.8,0.9C19,17.8,20.8,13.5,24.1,13.5L24.1,13.5z"/>
<path class="st1" d="M36.8,18.9c-0.1,0-2.9-0.2-2.9-0.2l-2.1-2.1c-0.1-0.1-0.2-0.1-0.3-0.1L30,47.8l11-2.4l-3.9-26.2
	C37,19,36.9,18.9,36.8,18.9L36.8,18.9z"/>
<path class="st2" d="M26.2,24.9l-1.4,4c-0.8-0.4-1.7-0.6-2.6-0.6c-2.1,0-2.2,1.3-2.2,1.7c0,1.8,4.8,2.5,4.8,6.8c0,3.4-2.2,5.6-5,5.6
	c-3.5,0-5.3-2.2-5.3-2.2l0.9-3.1c0,0,1.8,1.6,3.4,1.6c0.8,0,1.4-0.6,1.4-1.3c0,0,0,0,0-0.1c0-2.4-3.9-2.5-3.9-6.5
	c0-3.3,2.4-6.5,7.2-6.5C25.3,24.4,26.2,24.9,26.2,24.9L26.2,24.9z"/>
<path class="st2" d="M50.5,30.9c-0.8-0.4-1.2-0.8-1.2-1.3c0-0.6,0.5-1,1.4-1c0.7,0,1.3,0.2,1.9,0.4l0.7-2.2c0,0-0.7-0.5-2.6-0.5
	c-2.7,0-4.6,1.5-4.6,3.7c0,1.2,0.9,2.2,2,2.9c0.9,0.5,1.3,0.9,1.3,1.5s-0.5,1.1-1.4,1.1c-1.3,0-2.5-0.7-2.5-0.7L44.9,37
	c0,0,1.1,0.8,3.1,0.8c2.8,0,4.8-1.4,4.8-3.8C52.7,32.6,51.7,31.6,50.5,30.9L50.5,30.9z M61.6,26.3c-1.4,0-2.5,0.6-3.3,1.6l0,0
	l1.2-6.2h-3.1l-3,15.8h3.1l1-5.4c0.4-2,1.5-3.3,2.5-3.3c0.7,0,1,0.5,1,1.1c0,0.5,0,0.9-0.1,1.4l-1.2,6.2h3.1l1.2-6.4
	c0.1-0.7,0.2-1.3,0.2-2C64.1,27.4,63.2,26.3,61.6,26.3L61.6,26.3z M71.1,26.3c-3.7,0-6.2,3.4-6.2,7.1c0,2.4,1.5,4.3,4.3,4.3
	c3.7,0,6.1-3.3,6.1-7.1C75.3,28.4,74,26.3,71.1,26.3L71.1,26.3z M69.6,35.4c-1.1,0-1.5-0.9-1.5-2c0-1.8,0.9-4.7,2.6-4.7
	c1.1,0,1.5,0.9,1.5,1.9C72.1,32.5,71.2,35.4,69.6,35.4L69.6,35.4z M83.2,26.3c-2.1,0-3.3,1.8-3.3,1.8h0l0.2-1.6h-2.7l-0.6,4.1
	l-2.2,11.3h3.1l0.9-4.6h0.1c0,0,0.6,0.4,1.8,0.4c3.6,0,6-3.7,6-7.5C86.4,28.2,85.5,26.3,83.2,26.3L83.2,26.3z M80.3,35.4
	c-0.5,0-0.9-0.2-1.3-0.5l0.5-2.9c0.4-1.9,1.4-3.2,2.4-3.2c0.9,0,1.2,0.9,1.2,1.7C83.2,32.6,82,35.4,80.3,35.4L80.3,35.4z M90.8,21.9
	c-0.5,0-0.9,0.2-1.3,0.5s-0.5,0.8-0.5,1.3c0,0.9,0.6,1.5,1.5,1.5h0c1,0,1.8-0.7,1.8-1.7c0,0,0-0.1,0-0.1
	C92.4,22.5,91.8,21.9,90.8,21.9L90.8,21.9z M86.5,37.5h3.1l2.1-11h-3.1 M99.6,26.5h-2.2l0.1-0.5c0.2-1.1,0.8-2,1.8-2
	c0.3,0,0.7,0.1,1,0.1l0.6-2.4c0,0-0.6-0.3-1.7-0.3c-1.1,0-2.2,0.3-3,1c-1.1,0.9-1.6,2.2-1.8,3.5l-0.1,0.5h-1.4l-0.5,2.3h1.4
	l-1.6,8.7h3.1l1.6-8.7h2.1L99.6,26.5L99.6,26.5z M107.1,26.6l-2.8,7.5h0l-0.8-7.5h-3.3l1.9,10.1c0,0.2,0,0.4-0.1,0.5
	c-0.4,0.7-1,1.4-1.7,1.9c-0.5,0.4-1.1,0.7-1.7,0.9l0.9,2.6c1.1-0.3,2.2-0.9,3-1.7c1.4-1.3,2.7-3.4,4.1-6.2l3.8-8.1L107.1,26.6
	L107.1,26.6z"/>
</svg>
